<svg style="position: absolute; width: 0; height: 0;" width="0" height="0" version="1.1" xmlns="http://www.w3.org/2000/svg" xmlns:xlink="http://www.w3.org/1999/xlink">
<defs>
<symbol id="ts3-server_open" viewBox="0 0 1024 1024">
	<title>server_open</title>
	<path class="path1 fill-color2" d="M1001.6 257.6h-979.2c-12.8 0-22.4-8-22.4-22.4v-212.8c0-14.4 8-22.4 22.4-22.4h980.8c12.8 0 20.8 8 20.8 22.4v212.8c0 12.8-8 22.4-22.4 22.4zM43.2 212.8h937.6v-169.6h-937.6v169.6zM1001.6 640h-979.2c-14.4 0-22.4-8-22.4-20.8v-214.4c0-12.8 8-20.8 22.4-20.8h980.8c12.8 0 22.4 8 22.4 22.4v212.8c-1.6 12.8-9.6 20.8-24 20.8zM43.2 596.8h937.6v-169.6h-937.6v169.6zM1001.6 1024h-979.2c-14.4 0-22.4-8-22.4-22.4v-212.8c0-12.8 8-22.4 22.4-22.4h980.8c12.8 0 22.4 8 22.4 22.4v212.8c-1.6 14.4-9.6 22.4-24 22.4zM43.2 980.8h937.6v-169.6h-937.6v169.6z"></path>
	<path class="path2 fill-color2" d="M251.2 150.4h-137.6c-12.8 0-22.4-8-22.4-22.4s8-22.4 22.4-22.4h137.6c12.8 1.6 20.8 9.6 20.8 22.4s-11.2 22.4-20.8 22.4z"></path>
	<path class="path3 fill-color2" d="M251.2 534.4h-137.6c-12.8 0-22.4-8-22.4-22.4 0-12.8 8-22.4 22.4-22.4h137.6c12.8 0 22.4 8 22.4 22.4-1.6 12.8-12.8 22.4-22.4 22.4z"></path>
	<path class="path4 fill-color2" d="M251.2 916.8h-137.6c-12.8 0-22.4-8-22.4-22.4 0-12.8 8-22.4 22.4-22.4h137.6c12.8 0 22.4 8 22.4 22.4-1.6 11.2-12.8 22.4-22.4 22.4z"></path>
	<path class="path5 fill-color2" d="M504 150.4h-136c-12.8 0-22.4-8-22.4-22.4s8-22.4 22.4-22.4h134.4c12.8 0 22.4 8 22.4 22.4s-11.2 22.4-20.8 22.4z"></path>
	<path class="path6 fill-color2" d="M504 534.4h-136c-12.8 0-22.4-8-22.4-22.4 0-12.8 8-22.4 22.4-22.4h134.4c12.8 0 22.4 8 22.4 22.4 0 12.8-11.2 22.4-20.8 22.4z"></path>
	<path class="path7 fill-color2" d="M504 916.8h-136c-12.8 0-22.4-8-22.4-22.4 0-12.8 8-22.4 22.4-22.4h134.4c12.8 0 22.4 8 22.4 22.4 0 11.2-11.2 22.4-20.8 22.4z"></path>
	<path class="path8 fill-color2" d="M899.2 896c0 17.673-14.327 32-32 32s-32-14.327-32-32c0-17.673 14.327-32 32-32s32 14.327 32 32z"></path>
	<path class="path9 fill-color2" d="M899.2 512c0 17.673-14.327 32-32 32s-32-14.327-32-32c0-17.673 14.327-32 32-32s32 14.327 32 32z"></path>
	<path class="path10 fill-color2" d="M899.2 128c0 17.673-14.327 32-32 32s-32-14.327-32-32c0-17.673 14.327-32 32-32s32 14.327 32 32z"></path>
</symbol>
<symbol id="ts3-server_pass" viewBox="0 0 1024 1024">
	<title>server_pass</title>
	<path class="path1 fill-color5" d="M1001.6 257.6h-979.2c-12.8 0-22.4-8-22.4-22.4v-212.8c0-14.4 8-22.4 22.4-22.4h980.8c12.8 0 20.8 8 20.8 22.4v212.8c0 12.8-8 22.4-22.4 22.4zM43.2 212.8h937.6v-169.6h-937.6v169.6z"></path>
	<path class="path2 fill-color5" d="M1001.6 640h-979.2c-14.4 0-22.4-8-22.4-20.8v-214.4c0-12.8 8-20.8 22.4-20.8h980.8c12.8 0 22.4 8 22.4 22.4v212.8c-1.6 12.8-9.6 20.8-24 20.8zM43.2 596.8h937.6v-169.6h-937.6v169.6z"></path>
	<path class="path3 fill-color5" d="M1001.6 1024h-979.2c-14.4 0-22.4-8-22.4-22.4v-212.8c0-12.8 8-22.4 22.4-22.4h980.8c12.8 0 22.4 8 22.4 22.4v212.8c-1.6 14.4-9.6 22.4-24 22.4zM43.2 980.8h937.6v-169.6h-937.6v169.6z"></path>
	<path class="path4 fill-color5" d="M251.2 150.4h-137.6c-12.8 0-22.4-8-22.4-22.4s8-22.4 22.4-22.4h137.6c12.8 1.6 20.8 9.6 20.8 22.4s-11.2 22.4-20.8 22.4z"></path>
	<path class="path5 fill-color5" d="M251.2 534.4h-137.6c-12.8 0-22.4-8-22.4-22.4 0-12.8 8-22.4 22.4-22.4h137.6c12.8 0 22.4 8 22.4 22.4-1.6 12.8-12.8 22.4-22.4 22.4z"></path>
	<path class="path6 fill-color5" d="M251.2 916.8h-137.6c-12.8 0-22.4-8-22.4-22.4 0-12.8 8-22.4 22.4-22.4h137.6c12.8 0 22.4 8 22.4 22.4-1.6 11.2-12.8 22.4-22.4 22.4z"></path>
	<path class="path7 fill-color5" d="M504 150.4h-136c-12.8 0-22.4-8-22.4-22.4s8-22.4 22.4-22.4h134.4c12.8 0 22.4 8 22.4 22.4s-11.2 22.4-20.8 22.4z"></path>
	<path class="path8 fill-color5" d="M504 534.4h-136c-12.8 0-22.4-8-22.4-22.4 0-12.8 8-22.4 22.4-22.4h134.4c12.8 0 22.4 8 22.4 22.4 0 12.8-11.2 22.4-20.8 22.4z"></path>
	<path class="path9 fill-color5" d="M504 916.8h-136c-12.8 0-22.4-8-22.4-22.4 0-12.8 8-22.4 22.4-22.4h134.4c12.8 0 22.4 8 22.4 22.4 0 11.2-11.2 22.4-20.8 22.4z"></path>
	<path class="path10 fill-color5" d="M899.2 896c0 17.673-14.327 32-32 32s-32-14.327-32-32c0-17.673 14.327-32 32-32s32 14.327 32 32z"></path>
	<path class="path11 fill-color5" d="M899.2 512c0 17.673-14.327 32-32 32s-32-14.327-32-32c0-17.673 14.327-32 32-32s32 14.327 32 32z"></path>
	<path class="path12 fill-color5" d="M899.2 128c0 17.673-14.327 32-32 32s-32-14.327-32-32c0-17.673 14.327-32 32-32s32 14.327 32 32z"></path>
</symbol>
<symbol id="ts3-server_full" viewBox="0 0 1024 1024">
	<title>server_full</title>
	<path class="path1 fill-color8" d="M1001.6 257.6h-979.2c-12.8 0-22.4-8-22.4-22.4v-212.8c0-14.4 8-22.4 22.4-22.4h980.8c12.8 0 20.8 8 20.8 22.4v212.8c0 12.8-8 22.4-22.4 22.4zM43.2 212.8h937.6v-169.6h-937.6v169.6z"></path>
	<path class="path2 fill-color8" d="M1001.6 640h-979.2c-14.4 0-22.4-8-22.4-20.8v-214.4c0-12.8 8-20.8 22.4-20.8h980.8c12.8 0 22.4 8 22.4 22.4v212.8c-1.6 12.8-9.6 20.8-24 20.8zM43.2 596.8h937.6v-169.6h-937.6v169.6z"></path>
	<path class="path3 fill-color8" d="M1001.6 1024h-979.2c-14.4 0-22.4-8-22.4-22.4v-212.8c0-12.8 8-22.4 22.4-22.4h980.8c12.8 0 22.4 8 22.4 22.4v212.8c-1.6 14.4-9.6 22.4-24 22.4zM43.2 980.8h937.6v-169.6h-937.6v169.6z"></path>
	<path class="path4 fill-color8" d="M251.2 150.4h-137.6c-12.8 0-22.4-8-22.4-22.4s8-22.4 22.4-22.4h137.6c12.8 1.6 20.8 9.6 20.8 22.4s-11.2 22.4-20.8 22.4z"></path>
	<path class="path5 fill-color8" d="M251.2 534.4h-137.6c-12.8 0-22.4-8-22.4-22.4 0-12.8 8-22.4 22.4-22.4h137.6c12.8 0 22.4 8 22.4 22.4-1.6 12.8-12.8 22.4-22.4 22.4z"></path>
	<path class="path6 fill-color8" d="M251.2 916.8h-137.6c-12.8 0-22.4-8-22.4-22.4 0-12.8 8-22.4 22.4-22.4h137.6c12.8 0 22.4 8 22.4 22.4-1.6 11.2-12.8 22.4-22.4 22.4z"></path>
	<path class="path7 fill-color8" d="M504 150.4h-136c-12.8 0-22.4-8-22.4-22.4s8-22.4 22.4-22.4h134.4c12.8 0 22.4 8 22.4 22.4s-11.2 22.4-20.8 22.4z"></path>
	<path class="path8 fill-color8" d="M504 534.4h-136c-12.8 0-22.4-8-22.4-22.4 0-12.8 8-22.4 22.4-22.4h134.4c12.8 0 22.4 8 22.4 22.4 0 12.8-11.2 22.4-20.8 22.4z"></path>
	<path class="path9 fill-color8" d="M504 916.8h-136c-12.8 0-22.4-8-22.4-22.4 0-12.8 8-22.4 22.4-22.4h134.4c12.8 0 22.4 8 22.4 22.4 0 11.2-11.2 22.4-20.8 22.4z"></path>
	<path class="path10 fill-color8" d="M899.2 896c0 17.673-14.327 32-32 32s-32-14.327-32-32c0-17.673 14.327-32 32-32s32 14.327 32 32z"></path>
	<path class="path11 fill-color8" d="M899.2 512c0 17.673-14.327 32-32 32s-32-14.327-32-32c0-17.673 14.327-32 32-32s32 14.327 32 32z"></path>
	<path class="path12 fill-color8" d="M899.2 128c0 17.673-14.327 32-32 32s-32-14.327-32-32c0-17.673 14.327-32 32-32s32 14.327 32 32z"></path>
</symbol>
<symbol id="ts3-group_icon_600" viewBox="0 0 1024 1024">
	<title>group_icon_600</title>
	<path class="path1 fill-color2" d="M1020.8 900.8c-8-68.8-38.4-176-110.4-225.6-46.4-32-105.6-46.4-164.8-73.6-33.6-14.4-64-30.4-92.8-41.6l-3.2-94.4c-12.8 19.2-27.2 33.6-43.2 44.8 24-24 43.2-57.6 59.2-104 28.8-16 54.4-80 54.4-121.6 0-14.4-3.2-38.4-20.8-38.4 1.6-57.6 1.6-112-17.6-153.6-27.2-56-78.4-92.8-171.2-92.8-91.2 0-144 36.8-169.6 92.8-19.2 41.6-19.2 96-16 153.6-19.2 0-22.4 22.4-22.4 38.4 0 25.6 9.6 57.6 22.4 84.8l1.6 1.6c25.6 20.8 57.6 35.2 91.2 46.4 16 4.8 32 8 48 12.8 4.8-9.6 16-16 28.8-14.4l35.2 3.2c16 1.6 28.8 16 27.2 32s-16 28.8-32 27.2l-35.2-3.2c-12.8-1.6-20.8-9.6-25.6-19.2-17.6-3.2-36.8-6.4-54.4-12.8-16-4.8-32-11.2-48-17.6 14.4 38.4 32 65.6 54.4 88-17.6-11.2-32-27.2-43.2-44.8l-1.6 91.2c-28.8 12.8-59.2 27.2-92.8 41.6-57.6 24-120 41.6-164.8 73.6-72 49.6-102.4 155.2-110.4 225.6-3.2 20.8 4.8 33.6 27.2 40 148.8 44.8 251.2 83.2 481.6 83.2s331.2-38.4 481.6-83.2c24-6.4 30.4-19.2 27.2-40z"></path>
	<path class="path2 fill-color8" d="M785.6 968h-86.4l-185.6-457.6h86.4l140.8 342.4 140.8-342.4h86.4l-182.4 457.6z"></path>
</symbol>
<symbol id="ts3-channel_flag_default" viewBox="0 0 1024 1024">
	<title>channel_flag_default</title>
	<path class="path1 fill-color2" d="M147.2 1024c-8 0-14.4-6.4-14.4-14.4v-468.8c0-8 6.4-14.4 14.4-14.4s14.4 6.4 14.4 14.4v456h700.8v-456c0-8 6.4-14.4 14.4-14.4s14.4 6.4 14.4 14.4v470.4c0 8-6.4 14.4-14.4 14.4h-729.6z"></path>
	<path class="path2 fill-color2" d="M1006.4 521.6c-3.2 0-6.4-1.6-9.6-4.8l-484.8-483.2-484.8 484.8c-3.2 3.2-6.4 4.8-9.6 4.8s-6.4-1.6-9.6-4.8c-6.4-6.4-6.4-12.8 0-19.2l494.4-494.4c3.2-3.2 6.4-4.8 9.6-4.8s6.4 1.6 9.6 4.8l494.4 494.4c6.4 6.4 6.4 12.8 0 19.2l-1.6 1.6v1.6h-8z"></path>
</symbol>
<symbol id="ts3-channel_flag_moderated" viewBox="0 0 1024 1024">
	<title>channel_flag_moderated</title>
	<path class="path1 fill-color5" d="M972.8 84.8h-921.6c-27.2 0-51.2 24-51.2 52.8v518.4c0 28.8 24 51.2 51.2 51.2h464c28.8 0 68.8 16 88 36.8l182.4 182.4c20.8 20.8 33.6 12.8 28.8-14.4l-22.4-153.6c-4.8-28.8 16-51.2 44.8-51.2h132.8c28.8 0 51.2-24 51.2-51.2v-518.4c3.2-28.8-20.8-52.8-48-52.8zM697.6 529.6c0 6.4-1.6 11.2-6.4 16s-9.6 6.4-16 6.4-11.2-1.6-16-6.4c-4.8-4.8-6.4-9.6-6.4-16v-272l-110.4 273.6c-3.2 6.4-6.4 11.2-12.8 14.4-4.8 3.2-11.2 4.8-19.2 4.8-6.4 0-12.8-1.6-19.2-4.8-4.8-3.2-9.6-8-12.8-14.4l-110.4-273.6v272c0 6.4-1.6 11.2-6.4 16s-9.6 6.4-16 6.4-11.2-1.6-16-6.4c-4.8-4.8-6.4-9.6-6.4-16v-286.4c0-8 3.2-16 9.6-22.4s12.8-9.6 22.4-9.6h16c6.4 0 12.8 1.6 17.6 6.4 4.8 3.2 9.6 8 11.2 14.4l108.8 272 108.8-272c3.2-6.4 6.4-11.2 11.2-14.4s11.2-6.4 17.6-6.4h16c8 0 16 3.2 22.4 9.6s9.6 14.4 9.6 22.4v286.4z"></path>
</symbol>
<symbol id="ts3-channel_flag_music" viewBox="0 0 1024 1024">
	<title>channel_flag_music</title>
	<path class="path1 fill-color2" d="M675.2 145.6c-68.8-40-129.6-75.2-129.6-131.2 0-8-6.4-14.4-14.4-14.4s-14.4 6.4-14.4 14.4v708.8c-30.4-40-80-64-139.2-64-41.6 0-83.2 11.2-121.6 33.6-100.8 57.6-144 171.2-96 254.4 27.2 48 83.2 76.8 147.2 76.8 41.6 0 83.2-11.2 121.6-33.6 73.6-43.2 116.8-115.2 116.8-182.4v-721.6c27.2 32 70.4 57.6 115.2 83.2 123.2 72 262.4 152 155.2 409.6-3.2 6.4 0 16 8 17.6 6.4 3.2 16 0 17.6-8 118.4-278.4-40-369.6-166.4-443.2zM416 966.4c-33.6 19.2-72 30.4-108.8 30.4-54.4 0-100.8-24-123.2-62.4-40-68.8 0-166.4 86.4-217.6 33.6-19.2 72-30.4 108.8-30.4 54.4 0 100.8 24 123.2 64 40 67.2 1.6 164.8-86.4 216z"></path>
</symbol>
<symbol id="ts3-channel_flag_password" viewBox="0 0 1024 1024">
	<title>channel_flag_password</title>
	<path class="path1 fill-color2" d="M862.4 1024h-700.8c-46.4 0-83.2-36.8-83.2-83.2v-433.6c0-46.4 36.8-83.2 83.2-83.2h699.2c46.4 0 83.2 36.8 83.2 83.2v433.6c1.6 46.4-35.2 83.2-81.6 83.2zM161.6 457.6c-27.2 0-49.6 22.4-49.6 49.6v433.6c0 28.8 22.4 49.6 49.6 49.6h699.2c28.8 0 49.6-22.4 49.6-49.6v-433.6c0-28.8-22.4-49.6-49.6-49.6h-699.2z"></path>
	<path class="path2 fill-color2" d="M779.2 433.6h-33.6v-163.2c0-129.6-107.2-236.8-236.8-236.8-126.4 0-230.4 104-230.4 230.4v169.6h-33.6v-171.2c0-144 118.4-262.4 264-262.4 148.8 0 270.4 121.6 270.4 270.4v163.2z"></path>
	<path class="path3 fill-color2" d="M512 883.2c-28.8 0-49.6-22.4-49.6-49.6v-96c-30.4-17.6-49.6-49.6-49.6-86.4 0-54.4 44.8-99.2 99.2-99.2s99.2 44.8 99.2 99.2c0 36.8-19.2 68.8-49.6 86.4v96c0 27.2-20.8 49.6-49.6 49.6zM512 582.4c-36.8 0-67.2 30.4-67.2 67.2 0 27.2 14.4 49.6 40 62.4l9.6 4.8v118.4c0 9.6 6.4 16 16 16s16-6.4 16-16v-118.4l9.6-4.8c25.6-9.6 40-35.2 40-62.4 3.2-36.8-27.2-67.2-64-67.2z"></path>
</symbol>
<symbol id="ts3-channel_full" viewBox="0 0 1024 1024">
	<title>channel_full</title>
	<path class="path1 fill-color8" d="M296 340.8h-6.4c-28.8 0-51.2 24-51.2 51.2v8c0 28.8 24 51.2 51.2 51.2h6.4c28.8 0 51.2-24 51.2-51.2v-6.4c0-28.8-24-52.8-51.2-52.8zM515.2 340.8h-6.4c-28.8 0-51.2 24-51.2 51.2v8c0 28.8 24 51.2 51.2 51.2h6.4c28.8 0 51.2-24 51.2-51.2v-6.4c0-28.8-22.4-52.8-51.2-52.8zM734.4 340.8h-6.4c-28.8 0-51.2 24-51.2 51.2v8c0 28.8 24 51.2 51.2 51.2h6.4c28.8 0 51.2-24 51.2-51.2v-6.4c0-28.8-22.4-52.8-51.2-52.8zM1024 656c0 28.8-24 51.2-51.2 51.2h-132.8c-28.8 0-48 22.4-44.8 51.2l22.4 153.6c4.8 28.8-9.6 35.2-28.8 14.4l-184-182.4c-20.8-20.8-59.2-36.8-88-36.8h-464c-28.8 0-52.8-22.4-52.8-51.2v-518.4c0-28.8 24-51.2 51.2-51.2h920c28.8 0 51.2 24 51.2 51.2v518.4z"></path>
</symbol>
<symbol id="ts3-channel_open" viewBox="0 0 1024 1024">
	<title>channel_open</title>
	<path class="path1 fill-color6" d="M296 340.8h-6.4c-28.8 0-51.2 24-51.2 51.2v8c0 28.8 24 51.2 51.2 51.2h6.4c28.8 0 51.2-24 51.2-51.2v-6.4c0-28.8-24-52.8-51.2-52.8zM515.2 340.8h-6.4c-28.8 0-51.2 24-51.2 51.2v8c0 28.8 24 51.2 51.2 51.2h6.4c28.8 0 51.2-24 51.2-51.2v-6.4c0-28.8-22.4-52.8-51.2-52.8zM734.4 340.8h-6.4c-28.8 0-51.2 24-51.2 51.2v8c0 28.8 24 51.2 51.2 51.2h6.4c28.8 0 51.2-24 51.2-51.2v-6.4c0-28.8-22.4-52.8-51.2-52.8zM1024 656c0 28.8-24 51.2-51.2 51.2h-132.8c-28.8 0-48 22.4-44.8 51.2l22.4 153.6c4.8 28.8-9.6 35.2-28.8 14.4l-184-182.4c-20.8-20.8-59.2-36.8-88-36.8h-464c-28.8 0-52.8-22.4-52.8-51.2v-518.4c0-28.8 24-51.2 51.2-51.2h920c28.8 0 51.2 24 51.2 51.2v518.4z"></path>
</symbol>
<symbol id="ts3-channel_pass" viewBox="0 0 1024 1024">
	<title>channel_pass</title>
	<path class="path1 fill-color5" d="M516.8 228.8c-44.8-1.6-81.6 33.6-81.6 76.8v56c0 3.2 3.2 6.4 6.4 6.4h144c3.2 0 6.4-3.2 6.4-6.4v-52.8c-1.6-41.6-33.6-78.4-75.2-80zM972.8 84.8h-921.6c-27.2 0-51.2 24-51.2 52.8v518.4c0 28.8 24 51.2 51.2 51.2h464c28.8 0 68.8 16 88 36.8l182.4 182.4c20.8 20.8 33.6 12.8 28.8-14.4l-22.4-153.6c-4.8-28.8 16-51.2 44.8-51.2h132.8c28.8 0 51.2-24 51.2-51.2v-518.4c3.2-28.8-20.8-52.8-48-52.8zM665.6 584c0 8-6.4 16-16 16h-276.8c-8 0-16-6.4-16-16v-201.6c0-8 6.4-16 16-16h22.4c3.2 0 6.4-3.2 6.4-6.4v-56c0-62.4 52.8-113.6 115.2-112 60.8 1.6 107.2 52.8 107.2 113.6v52.8c0 3.2 3.2 6.4 6.4 6.4h22.4c8 0 16 6.4 14.4 16v203.2z"></path>
</symbol>
<symbol id="ts3-client_away" viewBox="0 0 1024 1024">
	<title>client_away</title>
	<path class="path1 fill-color7" d="M140.8 444.8h129.6l-64-156.8-65.6 156.8zM972.8 84.8h-921.6c-27.2 0-51.2 24-51.2 52.8v518.4c0 28.8 24 51.2 51.2 51.2h464c28.8 0 68.8 16 88 36.8l182.4 182.4c20.8 20.8 33.6 12.8 28.8-14.4l-22.4-153.6c-4.8-28.8 16-51.2 44.8-51.2h132.8c28.8 0 51.2-24 51.2-51.2v-518.4c3.2-28.8-20.8-52.8-48-52.8zM353.6 566.4c-3.2 4.8-9.6 6.4-17.6 6.4s-14.4-4.8-17.6-12.8l-32-75.2h-163.2l-32 75.2c-3.2 9.6-9.6 12.8-17.6 12.8s-14.4-1.6-17.6-6.4c-3.2-4.8-6.4-8-6.4-12.8s0-8 3.2-12.8l121.6-289.6c6.4-12.8 14.4-19.2 27.2-19.2h6.4c12.8 0 22.4 6.4 27.2 19.2l121.6 289.6c1.6 3.2 3.2 8 3.2 12.8s-1.6 8-6.4 12.8zM641.6 270.4c-4.8 3.2-9.6 6.4-14.4 6.4h-164.8v105.6h147.2c6.4 0 11.2 1.6 14.4 6.4s6.4 9.6 6.4 14.4c0 6.4-1.6 11.2-6.4 14.4-3.2 3.2-9.6 6.4-14.4 6.4h-147.2v128c0 6.4-1.6 11.2-6.4 16s-9.6 6.4-16 6.4-11.2-1.6-16-6.4c-4.8-4.8-6.4-9.6-6.4-16v-294.4c0-6.4 1.6-11.2 6.4-16s9.6-6.4 16-6.4h187.2c6.4 0 11.2 1.6 14.4 6.4s6.4 9.6 6.4 14.4-1.6 9.6-6.4 14.4zM966.4 566.4c-4.8 3.2-9.6 6.4-16 6.4s-12.8-3.2-16-8l-123.2-158.4-54.4 54.4v89.6c0 6.4-1.6 11.2-6.4 16s-9.6 6.4-16 6.4-11.2-1.6-16-6.4c-4.8-4.8-6.4-9.6-6.4-16v-296c0-6.4 1.6-11.2 6.4-16s9.6-6.4 16-6.4 11.2 1.6 16 6.4 6.4 9.6 6.4 16v152l163.2-166.4c4.8-4.8 9.6-8 16-8s11.2 1.6 14.4 4.8c3.2 3.2 6.4 8 6.4 14.4s-1.6 11.2-4.8 14.4l-110.4 110.4 128 160c3.2 4.8 4.8 9.6 4.8 14.4-1.6 8-4.8 12.8-8 16z"></path>
</symbol>
<symbol id="ts3-client_cc_idle" viewBox="0 0 1024 1024">
	<title>client_cc_idle</title>
	<path class="path1 fill-color4" d="M512 112c220.8 0 400 179.2 400 400s-179.2 400-400 400-400-179.2-400-400 179.2-400 400-400zM512 0c-283.2 0-512 228.8-512 512s228.8 512 512 512 512-228.8 512-512-228.8-512-512-512z"></path>
</symbol>
<symbol id="ts3-client_cc_talk" viewBox="0 0 1024 1024">
	<title>client_cc_talk</title>
	<path class="path1 fill-color5" d="M512 112c220.8 0 400 179.2 400 400s-179.2 400-400 400-400-179.2-400-400 179.2-400 400-400zM512 0c-283.2 0-512 228.8-512 512s228.8 512 512 512 512-228.8 512-512-228.8-512-512-512z"></path>
</symbol>
<symbol id="ts3-client_idle" viewBox="0 0 1024 1024">
	<title>client_idle</title>
	<path class="path1 fill-color3" d="M512 112c220.8 0 400 179.2 400 400s-179.2 400-400 400-400-179.2-400-400 179.2-400 400-400zM512 0c-283.2 0-512 228.8-512 512s228.8 512 512 512 512-228.8 512-512-228.8-512-512-512z"></path>
</symbol>
<symbol id="ts3-client_mic_disabled" viewBox="0 0 1024 1024">
	<title>client_mic_disabled</title>
	<path class="path1 fill-color2" d="M510.4 0c-84.8 0-171.2 64-171.2 171.2v180.8l334.4-230.4c-20.8-76.8-92.8-121.6-163.2-121.6zM808 427.2c-43.2 0-43.2 0-43.2 43.2v41.6c0 148.8-107.2 256-256 256-81.6 0-150.4-32-192-84.8l-73.6 46.4c51.2 59.2 126.4 102.4 222.4 123.2v128c0 43.2 0 43.2 43.2 43.2s43.2 0 43.2-43.2v-128c192-43.2 299.2-171.2 299.2-340.8v-43.2c0-41.6 0-41.6-43.2-41.6zM875.2 184l-35.2-51.2c-4.8-8-14.4-9.6-22.4-4.8l-665.6 460.8c-8 4.8-9.6 14.4-4.8 22.4l35.2 51.2c4.8 8 14.4 9.6 22.4 4.8l142.4-97.6c24 72 92.8 113.6 161.6 113.6 84.8 0 171.2-64 171.2-171.2v-174.4l190.4-131.2c8-4.8 9.6-16 4.8-22.4z"></path>
	<path class="path2 fill-color8" d="M406.4 1020.8c-6.4 0-12.8-3.2-17.6-6.4l-6.4-6.4c-9.6-9.6-9.6-24 0-33.6l216-216c4.8-4.8 11.2-6.4 17.6-6.4s12.8 3.2 17.6 6.4l6.4 6.4c4.8 4.8 6.4 11.2 6.4 17.6s-3.2 12.8-6.4 17.6l-217.6 212.8c-4.8 4.8-9.6 8-16 8z"></path>
	<path class="path3 fill-color8" d="M614.4 1020.8c-6.4 0-12.8-3.2-17.6-6.4l-214.4-216c-9.6-9.6-9.6-24 0-33.6l6.4-6.4c4.8-4.8 11.2-6.4 17.6-6.4s12.8 3.2 17.6 6.4l216 216c4.8 4.8 6.4 11.2 6.4 17.6s-3.2 12.8-6.4 17.6l-6.4 6.4c-6.4 1.6-12.8 4.8-19.2 4.8z"></path>
</symbol>
<symbol id="ts3-client_mic_muted" viewBox="0 0 1024 1024">
	<title>client_mic_muted</title>
	<path class="path1 fill-color2" d="M520 0c-84.8 0-171.2 64-171.2 171.2v180.8l334.4-230.4c-20.8-76.8-92.8-121.6-163.2-121.6zM819.2 427.2c-43.2 0-43.2 0-43.2 43.2v41.6c0 148.8-107.2 256-256 256-81.6 0-150.4-32-192-84.8l-73.6 46.4c51.2 59.2 126.4 102.4 222.4 123.2v128c0 43.2 0 43.2 43.2 43.2s43.2 0 43.2-43.2v-128c192-43.2 299.2-171.2 299.2-340.8v-43.2c-1.6-41.6-1.6-41.6-43.2-41.6zM884.8 184l-35.2-51.2c-4.8-8-14.4-9.6-22.4-4.8l-664 460.8c-8 4.8-9.6 14.4-4.8 22.4l35.2 51.2c4.8 8 14.4 9.6 22.4 4.8l142.4-97.6c24 72 92.8 113.6 161.6 113.6 84.8 0 171.2-64 171.2-171.2v-174.4l190.4-131.2c6.4-4.8 8-16 3.2-22.4z"></path>
</symbol>
<symbol id="ts3-client_priority" viewBox="0 0 1024 1024">
	<title>client_priority</title>
	<path class="path1 fill-color2" d="M512 0c-84.8 0-171.2 64-171.2 171.2v340.8c0 107.2 84.8 171.2 171.2 171.2s171.2-64 171.2-171.2v-340.8c0-107.2-86.4-171.2-171.2-171.2zM811.2 427.2c-43.2 0-43.2 0-43.2 43.2v41.6c0 148.8-107.2 256-256 256s-256-107.2-256-256v-43.2c0-43.2 0-43.2-43.2-43.2s-43.2 0-43.2 43.2v43.2c0 171.2 107.2 299.2 299.2 340.8v128c0 43.2 0 43.2 43.2 43.2s43.2 0 43.2-43.2v-128c192-43.2 299.2-171.2 299.2-340.8v-43.2c-1.6-41.6-1.6-41.6-43.2-41.6z"></path>
</symbol>
<symbol id="ts3-client_snd_disabled" viewBox="0 0 1024 1024">
	<title>client_snd_disabled</title>
	<path class="path1 fill-color2" d="M708.8 739.2c-20.8 8-44.8-1.6-52.8-20.8-8-20.8 1.6-44.8 20.8-52.8 9.6-4.8 19.2-9.6 28.8-16s17.6-12.8 25.6-20.8 14.4-16 20.8-25.6c6.4-9.6 11.2-19.2 16-28.8s8-20.8 9.6-32c1.6-9.6 3.2-22.4 3.2-33.6 0-12.8-1.6-24-3.2-33.6-1.6-11.2-4.8-22.4-9.6-32s-9.6-19.2-16-28.8c-6.4-9.6-12.8-17.6-20.8-25.6-16-16-33.6-27.2-54.4-36.8-20.8-8-30.4-32-20.8-52.8 8-20.8 32-30.4 52.8-20.8 30.4 12.8 57.6 30.4 80 52.8 11.2 11.2 20.8 24 30.4 36.8 8 12.8 16 27.2 22.4 41.6s11.2 30.4 14.4 48c3.2 16 4.8 33.6 4.8 49.6s-1.6 33.6-4.8 49.6c-3.2 16-8 32-14.4 48s-14.4 28.8-22.4 41.6c-9.6 12.8-19.2 25.6-30.4 36.8s-24 20.8-36.8 30.4c-14.4 11.2-28.8 19.2-43.2 25.6z"></path>
	<path class="path2 fill-color2" d="M780.8 875.2c-20.8 8-44.8-1.6-52.8-20.8-8-20.8 1.6-44.8 20.8-52.8s36.8-17.6 52.8-28.8c17.6-11.2 32-24 46.4-38.4s27.2-30.4 38.4-46.4c11.2-17.6 20.8-35.2 28.8-52.8 8-19.2 14.4-40 19.2-60.8 4.8-19.2 6.4-41.6 6.4-62.4s-1.6-43.2-6.4-62.4c-4.8-20.8-11.2-41.6-19.2-60.8s-17.6-36.8-28.8-52.8c-11.2-17.6-24-32-38.4-46.4s-30.4-27.2-46.4-38.4c-17.6-11.2-35.2-20.8-52.8-28.8-20.8-8-30.4-32-20.8-52.8 8-20.8 32-30.4 52.8-20.8 24 9.6 46.4 22.4 67.2 36.8s41.6 30.4 59.2 48 33.6 38.4 48 59.2c14.4 20.8 25.6 43.2 36.8 67.2 9.6 24 17.6 49.6 24 75.2 4.8 25.6 8 52.8 8 78.4 0 27.2-3.2 52.8-8 78.4s-12.8 51.2-24 75.2c-9.6 24-22.4 46.4-36.8 67.2s-30.4 41.6-48 59.2-38.4 33.6-59.2 48c-20.8 11.2-43.2 24-67.2 33.6z"></path>
	<path class="path3 fill-color2" d="M467.2 129.6c-80 60.8-160 121.6-241.6 180.8h-156.8c-38.4 0-68.8 32-68.8 68.8v262.4c0 38.4 32 68.8 68.8 68.8h156.8c80 60.8 160 121.6 241.6 180.8 36.8 27.2 78.4 22.4 78.4-24v-713.6c0-46.4-41.6-51.2-78.4-24z"></path>
</symbol>
<symbol id="ts3-client_snd_muted" viewBox="0 0 1024 1024">
	<title>client_snd_muted</title>
	<path class="path1 fill-color2" d="M708.8 739.2c-20.8 8-44.8-1.6-52.8-20.8-8-20.8 1.6-44.8 20.8-52.8 9.6-4.8 19.2-9.6 28.8-16s17.6-12.8 25.6-20.8 14.4-16 20.8-25.6c6.4-9.6 11.2-19.2 16-28.8s8-20.8 9.6-32c1.6-9.6 3.2-22.4 3.2-33.6 0-12.8-1.6-24-3.2-33.6-1.6-11.2-4.8-22.4-9.6-32s-9.6-19.2-16-28.8c-6.4-9.6-12.8-17.6-20.8-25.6-16-16-33.6-27.2-54.4-36.8-20.8-8-30.4-32-20.8-52.8 8-20.8 32-30.4 52.8-20.8 30.4 12.8 57.6 30.4 80 52.8 11.2 11.2 20.8 24 30.4 36.8 8 12.8 16 27.2 22.4 41.6s11.2 30.4 14.4 48c3.2 16 4.8 33.6 4.8 49.6s-1.6 33.6-4.8 49.6c-3.2 16-8 32-14.4 48s-14.4 28.8-22.4 41.6c-9.6 12.8-19.2 25.6-30.4 36.8s-24 20.8-36.8 30.4c-14.4 11.2-28.8 19.2-43.2 25.6z"></path>
	<path class="path2 fill-color2" d="M780.8 875.2c-20.8 8-44.8-1.6-52.8-20.8-8-20.8 1.6-44.8 20.8-52.8s36.8-17.6 52.8-28.8c17.6-11.2 32-24 46.4-38.4s27.2-30.4 38.4-46.4c11.2-17.6 20.8-35.2 28.8-52.8 8-19.2 14.4-40 19.2-60.8 4.8-19.2 6.4-41.6 6.4-62.4s-1.6-43.2-6.4-62.4c-4.8-20.8-11.2-41.6-19.2-60.8s-17.6-36.8-28.8-52.8c-11.2-17.6-24-32-38.4-46.4s-30.4-27.2-46.4-38.4c-17.6-11.2-35.2-20.8-52.8-28.8-20.8-8-30.4-32-20.8-52.8 8-20.8 32-30.4 52.8-20.8 24 9.6 46.4 22.4 67.2 36.8s41.6 30.4 59.2 48 33.6 38.4 48 59.2c14.4 20.8 25.6 43.2 36.8 67.2 9.6 24 17.6 49.6 24 75.2 4.8 25.6 8 52.8 8 78.4 0 27.2-3.2 52.8-8 78.4s-12.8 51.2-24 75.2c-9.6 24-22.4 46.4-36.8 67.2s-30.4 41.6-48 59.2-38.4 33.6-59.2 48c-20.8 11.2-43.2 24-67.2 33.6z"></path>
	<path class="path3 fill-color2" d="M467.2 129.6c-80 60.8-160 121.6-241.6 180.8h-156.8c-38.4 0-68.8 32-68.8 68.8v262.4c0 38.4 32 68.8 68.8 68.8h156.8c80 60.8 160 121.6 241.6 180.8 36.8 27.2 78.4 22.4 78.4-24v-713.6c0-46.4-41.6-51.2-78.4-24z"></path>
	<path class="path4 fill-color8" d="M46.4 1003.2c-6.4 0-12.8-3.2-17.6-6.4l-4.8-4.8c-9.6-9.6-9.6-24 0-33.6l196.8-196.8c4.8-4.8 11.2-6.4 17.6-6.4s12.8 3.2 17.6 6.4l4.8 4.8c9.6 9.6 9.6 24 0 33.6l-196.8 196.8c-4.8 3.2-11.2 6.4-17.6 6.4z"></path>
	<path class="path5 fill-color8" d="M238.4 1003.2c-6.4 0-12.8-3.2-17.6-6.4l-196.8-198.4c-9.6-9.6-9.6-24 0-33.6l4.8-4.8c4.8-4.8 11.2-6.4 17.6-6.4s12.8 3.2 17.6 6.4l196.8 196.8c4.8 4.8 6.4 11.2 6.4 17.6s-3.2 12.8-6.4 17.6l-4.8 4.8c-4.8 3.2-11.2 6.4-17.6 6.4z"></path>
</symbol>
<symbol id="ts3-client_talk" viewBox="0 0 1024 1024">
	<title>client_talk</title>
	<path class="path1 fill-color9" d="M512 112c220.8 0 400 179.2 400 400s-179.2 400-400 400-400-179.2-400-400 179.2-400 400-400zM512 0c-283.2 0-512 228.8-512 512s228.8 512 512 512 512-228.8 512-512-228.8-512-512-512z"></path>
</symbol>
<symbol id="ts3-client_talker" viewBox="0 0 1024 1024">
	<title>client_talker</title>
	<path class="path1 fill-color2" d="M512 0c-84.8 0-171.2 64-171.2 171.2v340.8c0 107.2 84.8 171.2 171.2 171.2s171.2-64 171.2-171.2v-340.8c0-107.2-86.4-171.2-171.2-171.2zM811.2 427.2c-43.2 0-43.2 0-43.2 43.2v41.6c0 148.8-107.2 256-256 256s-256-107.2-256-256v-43.2c0-43.2 0-43.2-43.2-43.2s-43.2 0-43.2 43.2v43.2c0 171.2 107.2 299.2 299.2 340.8v128c0 43.2 0 43.2 43.2 43.2s43.2 0 43.2-43.2v-128c192-43.2 299.2-171.2 299.2-340.8v-43.2c-1.6-41.6-1.6-41.6-43.2-41.6z"></path>
	<path class="path2 fill-color7" d="M768 512c-139.2 0-256 116.8-256 256s116.8 256 256 256 256-116.8 256-256-116.8-256-256-256z"></path>
	<path class="path3 fill-color10" d="M728 876.8c-8 0-14.4-3.2-19.2-8l-76.8-76.8c-11.2-11.2-11.2-28.8 0-40 4.8-4.8 12.8-8 19.2-8s14.4 3.2 19.2 8l56 56 142.4-142.4c4.8-4.8 12.8-8 19.2-8 8 0 14.4 3.2 19.2 8 11.2 11.2 11.2 28.8 0 40l-158.4 163.2c-6.4 4.8-12.8 8-20.8 8z"></path>
</symbol>
<symbol id="ts3-group_icon_0" viewBox="0 0 1024 1024">
	<title>group_icon_0</title>
	<path class="path1 fill-color2" d="M156.8 128h28.8v84.8h-28.8zM156.8 356.8h28.8v84.8h-28.8zM156.8 241.6h28.8v84.8h-28.8zM156.8 697.6h28.8v84.8h-28.8zM156.8 811.2h28.8v84.8h-28.8zM838.4 441.6h28.8v84.8h-28.8zM156.8 470.4h28.8v84.8h-28.8zM838.4 328h28.8v84.8h-28.8zM156.8 584h28.8v84.8h-28.8zM216 0h-59.2v100.8h28.8v-72h30.4zM312 995.2h84.8v28.8h-84.8zM838.4 896h28.8v84.8h-28.8zM838.4 668.8h28.8v84.8h-28.8zM838.4 782.4h28.8v84.8h-28.8zM852.8 206.4l-20.8 20.8 6.4 6.4v65.6h28.8v-76.8zM425.6 995.2h84.8v28.8h-84.8zM198.4 995.2h84.8v28.8h-84.8zM654.4 995.2h84.8v28.8h-84.8zM838.4 555.2h28.8v84.8h-28.8zM539.2 995.2h84.8v28.8h-84.8zM768 995.2h84.8v28.8h-84.8zM472 0h84.8v28.8h-84.8zM651.2 46.4l20.8-20.8-25.6-25.6h-60.8v28.8h48zM156.8 924.8h28.8v84.8h-28.8zM753.28 147.12l20.384-20.368 59.968 59.952-20.368 20.352zM244.8 0h84.8v28.8h-84.8zM358.4 0h84.8v28.8h-84.8zM672 66.976l20.384-20.352 59.968 59.952-20.368 20.384zM732.8 227.2h62.4v28.8h-62.4zM611.2 256h76.8v-28.8h-48v-48h-28.8zM611.2 72h28.8v62.4h-28.8z"></path>
</symbol>
<symbol id="ts3-group_icon_100" viewBox="0 0 1024 1024">
	<title>group_icon_100</title>
	<path class="path1 fill-color2" d="M1020.8 900.8c-8-68.8-38.4-176-110.4-225.6-46.4-32-105.6-46.4-164.8-73.6-33.6-14.4-64-30.4-92.8-41.6l-3.2-94.4c-12.8 19.2-27.2 33.6-43.2 44.8 24-24 43.2-57.6 59.2-104 28.8-16 54.4-80 54.4-121.6 0-14.4-3.2-38.4-20.8-38.4 1.6-57.6 1.6-112-17.6-153.6-27.2-56-78.4-92.8-171.2-92.8-91.2 0-144 36.8-169.6 92.8-19.2 41.6-19.2 96-16 153.6-19.2 0-22.4 22.4-22.4 38.4 0 25.6 9.6 57.6 22.4 84.8l1.6 1.6c25.6 20.8 57.6 35.2 91.2 46.4 16 4.8 32 8 48 12.8 4.8-9.6 16-16 28.8-14.4l35.2 3.2c16 1.6 28.8 16 27.2 32s-16 28.8-32 27.2l-35.2-3.2c-12.8-1.6-20.8-9.6-25.6-19.2-17.6-3.2-36.8-6.4-54.4-12.8-16-4.8-32-11.2-48-17.6 14.4 38.4 32 65.6 54.4 88-17.6-11.2-32-27.2-43.2-44.8l-1.6 91.2c-28.8 12.8-59.2 27.2-92.8 41.6-57.6 24-120 41.6-164.8 73.6-72 49.6-102.4 155.2-110.4 225.6-3.2 20.8 4.8 33.6 27.2 40 148.8 44.8 251.2 83.2 481.6 83.2s331.2-38.4 481.6-83.2c24-6.4 30.4-19.2 27.2-40z"></path>
	<path class="path2 fill-color8" d="M782.4 912c27.2 0 49.6-4.8 68.8-12.8 19.2-9.6 40-24 60.8-43.2l49.6 51.2c-48 54.4-107.2 80-176 80s-126.4-22.4-172.8-67.2c-46.4-44.8-68.8-100.8-68.8-169.6s24-124.8 70.4-171.2c46.4-44.8 105.6-68.8 176-68.8s131.2 25.6 177.6 78.4l-49.6 54.4c-22.4-20.8-43.2-35.2-62.4-43.2s-41.6-12.8-68.8-12.8c-46.4 0-84.8 14.4-116.8 44.8s-48 68.8-48 115.2c0 46.4 16 84.8 46.4 116.8 33.6 32 70.4 48 113.6 48z"></path>
</symbol>
<symbol id="ts3-group_icon_200" viewBox="0 0 1024 1024">
	<title>group_icon_200</title>
	<path class="path1 fill-color2" d="M1020.8 900.8c-8-68.8-38.4-176-110.4-225.6-46.4-32-105.6-46.4-164.8-73.6-33.6-14.4-64-30.4-92.8-41.6l-3.2-94.4c-12.8 19.2-27.2 33.6-43.2 44.8 24-24 43.2-57.6 59.2-104 28.8-16 54.4-80 54.4-121.6 0-14.4-3.2-38.4-20.8-38.4 1.6-57.6 1.6-112-17.6-153.6-27.2-56-78.4-92.8-171.2-92.8-91.2 0-144 36.8-169.6 92.8-19.2 41.6-19.2 96-16 153.6-19.2 0-22.4 22.4-22.4 38.4 0 25.6 9.6 57.6 22.4 84.8l1.6 1.6c25.6 20.8 57.6 35.2 91.2 46.4 16 4.8 32 8 48 12.8 4.8-9.6 16-16 28.8-14.4l35.2 3.2c16 1.6 28.8 16 27.2 32s-16 28.8-32 27.2l-35.2-3.2c-12.8-1.6-20.8-9.6-25.6-19.2-17.6-3.2-36.8-6.4-54.4-12.8-16-4.8-32-11.2-48-17.6 14.4 38.4 32 65.6 54.4 88-17.6-11.2-32-27.2-43.2-44.8l-1.6 91.2c-28.8 12.8-59.2 27.2-92.8 41.6-57.6 24-120 41.6-164.8 73.6-72 49.6-102.4 155.2-110.4 225.6-3.2 20.8 4.8 33.6 27.2 40 148.8 44.8 251.2 83.2 481.6 83.2s331.2-38.4 481.6-83.2c24-6.4 30.4-19.2 27.2-40z"></path>
	<path class="path2 fill-color8" d="M912 905.6c-46.4 44.8-104 67.2-171.2 67.2-68.8 0-124.8-22.4-171.2-67.2s-68.8-102.4-68.8-169.6c0-67.2 22.4-123.2 68.8-169.6 46.4-44.8 104-67.2 171.2-67.2 68.8 0 124.8 22.4 171.2 67.2s68.8 102.4 68.8 169.6c0 67.2-22.4 123.2-68.8 169.6zM854.4 617.6c-32-32-70.4-48-115.2-48s-83.2 16-115.2 48-46.4 72-46.4 118.4c0 46.4 16 84.8 46.4 118.4 32 32 70.4 48 115.2 48s83.2-16 115.2-48 46.4-72 46.4-118.4c0-46.4-14.4-84.8-46.4-118.4z"></path>
</symbol>
<symbol id="ts3-group_icon_300" viewBox="0 0 1024 1024">
	<title>group_icon_300</title>
	<path class="path1 fill-color2" d="M1033.6 900.8c-8-68.8-38.4-176-110.4-225.6-46.4-32-105.6-46.4-164.8-73.6-33.6-14.4-64-30.4-92.8-41.6l-3.2-94.4c-12.8 19.2-27.2 33.6-43.2 44.8 24-24 43.2-57.6 59.2-104 28.8-16 54.4-80 54.4-121.6 0-14.4-3.2-38.4-20.8-38.4 1.6-57.6 1.6-112-17.6-153.6-27.2-56-78.4-92.8-171.2-92.8-91.2 0-144 36.8-169.6 92.8-19.2 41.6-19.2 96-16 153.6-19.2 0-22.4 22.4-22.4 38.4 0 25.6 9.6 57.6 22.4 84.8l1.6 1.6c25.6 20.8 57.6 35.2 91.2 46.4 16 4.8 32 8 48 12.8 4.8-9.6 16-16 28.8-14.4l35.2 3.2c16 1.6 28.8 16 27.2 32s-16 28.8-32 27.2l-35.2-3.2c-12.8-1.6-20.8-9.6-25.6-19.2-17.6-3.2-36.8-6.4-54.4-12.8-16-4.8-32-11.2-48-17.6 14.4 38.4 32 65.6 54.4 88-17.6-11.2-32-27.2-43.2-44.8l-1.6 91.2c-28.8 12.8-59.2 27.2-92.8 41.6-57.6 24-120 41.6-164.8 73.6-72 49.6-102.4 155.2-110.4 225.6-3.2 20.8 4.8 33.6 27.2 40 150.4 43.2 252.8 83.2 481.6 83.2 230.4 0 331.2-38.4 481.6-83.2 24-6.4 30.4-19.2 27.2-40z"></path>
	<path class="path2 fill-color8" d="M792 569.6c-22.4 0-41.6 4.8-56 14.4s-22.4 22.4-22.4 41.6c0 19.2 8 32 22.4 43.2s44.8 20.8 92.8 32c46.4 11.2 83.2 27.2 105.6 48 24 20.8 35.2 51.2 35.2 91.2s-14.4 72-44.8 97.6c-30.4 25.6-70.4 36.8-118.4 36.8-72 0-136-24-190.4-73.6l48-57.6c46.4 40 94.4 60.8 144 60.8 25.6 0 44.8-4.8 59.2-16s22.4-25.6 22.4-43.2-6.4-32-20.8-41.6c-14.4-9.6-36.8-19.2-70.4-27.2s-59.2-16-76.8-22.4c-17.6-6.4-33.6-16-46.4-27.2-27.2-20.8-40-52.8-40-94.4s16-75.2 46.4-97.6c30.4-22.4 68.8-35.2 115.2-35.2 28.8 0 57.6 4.8 88 14.4 28.8 9.6 54.4 22.4 75.2 40l-41.6 57.6c-12.8-12.8-32-22.4-54.4-30.4-27.2-6.4-49.6-11.2-72-11.2z"></path>
</symbol>
<symbol id="ts3-group_icon_500" viewBox="0 0 1024 1024">
	<title>group_icon_500</title>
	<path class="path1 fill-color2" d="M1033.6 900.8c-8-68.8-38.4-176-110.4-225.6-46.4-32-105.6-46.4-164.8-73.6-33.6-14.4-64-30.4-92.8-41.6l-3.2-94.4c-12.8 19.2-27.2 33.6-43.2 44.8 24-24 43.2-57.6 59.2-104 28.8-16 54.4-80 54.4-121.6 0-14.4-3.2-38.4-20.8-38.4 1.6-57.6 1.6-112-17.6-153.6-27.2-56-78.4-92.8-171.2-92.8-91.2 0-144 36.8-169.6 92.8-19.2 41.6-19.2 96-16 153.6-19.2 0-22.4 22.4-22.4 38.4 0 25.6 9.6 57.6 22.4 84.8l1.6 1.6c25.6 20.8 57.6 35.2 91.2 46.4 16 4.8 32 8 48 12.8 4.8-9.6 16-16 28.8-14.4l35.2 3.2c16 1.6 28.8 16 27.2 32s-16 28.8-32 27.2l-35.2-3.2c-12.8-1.6-20.8-9.6-25.6-19.2-17.6-3.2-36.8-6.4-54.4-12.8-16-4.8-32-11.2-48-17.6 14.4 38.4 32 65.6 54.4 88-17.6-11.2-32-27.2-43.2-44.8l-1.6 91.2c-28.8 12.8-59.2 27.2-92.8 41.6-57.6 24-120 41.6-164.8 73.6-72 49.6-102.4 155.2-110.4 225.6-3.2 20.8 4.8 33.6 27.2 40 150.4 43.2 252.8 83.2 481.6 83.2 230.4 0 331.2-38.4 481.6-83.2 24-6.4 30.4-19.2 27.2-40z"></path>
	<path class="path2 fill-color8" d="M731.2 908.8h-9.6c-68.8 0-124.8-22.4-171.2-67.2s-68.8-102.4-68.8-169.6c0-67.2 22.4-123.2 68.8-169.6 46.4-44.8 104-67.2 171.2-67.2s124.8 22.4 171.2 67.2c46.4 44.8 68.8 100.8 68.8 169.6 0 51.2-14.4 96-41.6 136s-64 68.8-110.4 86.4c14.4 19.2 33.6 28.8 56 28.8 16 0 33.6-4.8 49.6-12.8s28.8-20.8 36.8-33.6l43.2 60.8c-38.4 40-81.6 60.8-131.2 60.8-27.2 0-54.4-8-80-24s-43.2-38.4-52.8-65.6zM835.2 553.6c-32-32-70.4-48-115.2-48s-83.2 16-115.2 48-46.4 72-46.4 118.4c0 46.4 16 84.8 46.4 118.4 32 32 70.4 48 115.2 48s83.2-16 115.2-48 46.4-72 46.4-118.4c1.6-46.4-14.4-84.8-46.4-118.4z"></path>
</symbol>
</defs>
</svg>
